<svg width="22" height="22" viewBox="0 0 22 22" fill="none" xmlns="http://www.w3.org/2000/svg">
<g id="OBJECTS" clip-path="url(#clip0_270_11840)">
<path id="Vector" d="M0 21.33L1.47 15.89C-2.64 8.50999 2.83 -0.43001 11.3 0.0199901C16.48 0.28999 20.9 4.66999 21.18 9.84999C21.64 18.26 12.96 23.74 5.53 19.87L0 21.33ZM2.53 18.8L5.83 17.96C10.6 20.99 17.05 18.85 18.91 13.5C21.22 6.86999 15.3 0.37999 8.5 2.04999C2.57 3.50999 -0.05 10.55 3.4 15.58L2.53 18.8Z" fill="white"/>
<path id="Vector_2" d="M6.68996 5.70998C6.85996 5.67998 7.48996 5.66998 7.63996 5.70998C7.70996 5.72998 7.80996 5.82998 7.85996 5.88998C8.04996 6.11998 8.70996 7.75998 8.82996 8.11998C8.91996 8.40998 8.88996 8.46998 8.73996 8.71998C8.57996 8.99998 8.11996 9.41998 8.02996 9.64998C7.91996 9.90998 8.24996 10.32 8.39996 10.54C9.13996 11.62 10.23 12.53 11.44 13.05C11.67 13.15 11.95 13.33 12.17 13.12L13.14 11.92C13.34 11.76 13.63 11.9 13.84 11.98C14.54 12.26 15.19 12.66 15.87 12.97C16.04 13.1 16 13.44 15.98 13.65C15.8 15.43 13.78 15.87 12.31 15.47C10.04 14.85 8.23996 13.42 6.81996 11.59C5.86996 10.36 4.92996 8.91998 5.38996 7.28998C5.52996 6.78998 6.13996 5.78998 6.68996 5.69998V5.70998Z" fill="white"/>
</g>
<defs>
<clipPath id="clip0_270_11840">
<rect width="21.2" height="21.33" fill="white"/>
</clipPath>
</defs>
</svg>
